<svg id="Layer_1" data-name="Layer 1" xmlns="http://www.w3.org/2000/svg" viewBox="0 0 150.91 128.87"><defs><style>.cls-1{fill:#fff;}.cls-2{opacity:0.54;}.cls-3,.cls-4,.cls-5{fill:none;stroke:#fff;}.cls-3{stroke-width:0.25px;}.cls-4,.cls-5{stroke-width:1.5px;}.cls-5{stroke-linecap:square;}</style></defs><path class="cls-1" d="M71.15,37.56,64.93,36c-1.51-.39-3.05-.67-4.51-1.19A9.71,9.71,0,0,1,53.91,28a2.72,2.72,0,0,0-.77-1.16,6.19,6.19,0,0,1-1.73-6.23,4.88,4.88,0,0,0,.2-1.3A11.67,11.67,0,0,1,61.48,7.39a3.41,3.41,0,0,0,1.61-.83A14.4,14.4,0,0,1,78.17,4a4.58,4.58,0,0,0,1.59.39c3.17.15,6,.89,7.83,3.84a1.38,1.38,0,0,0,1,.42,6.68,6.68,0,0,1,5.93,5.5,3.72,3.72,0,0,0,.65,1.36A5.19,5.19,0,0,1,96,20.34c-.75,2.25-2.21,2.21-4.46,1.9a3.64,3.64,0,0,0-1.43,0,3.5,3.5,0,0,1-3.1-.28c-.24-.16-.67,0-1,0-.07,0-.13.1-.19.11-1.83.26-3.66.5-5.48.78-.28,0-.67.17-.76.37a3.34,3.34,0,0,1-2.89,2c-.69.08-.78.4-.86,1a18,18,0,0,1-.72,3.09,6.32,6.32,0,0,0,.35,4.56c.79,1.71-.18,3-2,3.36a18,18,0,0,1-2.21.17ZM59.79,20.86c-2.74,2.1-4.4,4.66-3.37,8.24A7.08,7.08,0,0,0,60,33.6c0-4.79.28-5.7,2.09-6.73-1.7,2.33-2.15,4.62-.59,7a1.8,1.8,0,0,0,0-.8A5.63,5.63,0,0,1,65,26.34a8.3,8.3,0,0,1,5.37-.1,34.85,34.85,0,0,1,3.76,1.55,9.71,9.71,0,0,0-1.93-5.73c1.85.94,2.28,2.77,2.75,4.72.22-.33.28-.39.29-.45a1.22,1.22,0,0,0,0-.33,6.59,6.59,0,0,0-3.33-5,14.21,14.21,0,0,0-11.22-1.95c-2.38.5-4.54,1.45-5.5,4-.72,1.87-.7,3.89.22,5.13C55.2,24.67,56.53,22.17,59.79,20.86Zm18.05,3c1.06-.75,1.39-2,.79-3.82a18.14,18.14,0,0,0-7-9.65c-6.93-4.68-15.32-2.41-18.57,5-.2.47-.34,1-.59,1.66,1.15-1.05,2-2,3-2.72a4.41,4.41,0,0,1,3.4-1.12,5,5,0,0,1-1,.61c-.37.2-.73.43-1.1.64,9.24-2.87,15.57.5,19.59,9l.26-.2-1.79-4.65.29-.14ZM77,12.33c.31.36.65.69.93,1.07a14.68,14.68,0,0,1,2.73,7.77,6.5,6.5,0,0,0,.31,1c.41-.15,1-.19,1.17-.47a9.05,9.05,0,0,0,1.18-3,17.14,17.14,0,0,0-.87-7.48c-1-3-2.53-5.69-5.81-6.73A14.32,14.32,0,0,0,65.45,5.58c-.11,0-.17.17-.28.28a37.82,37.82,0,0,1,4,.46c1.87.41,2.83,1.09,3.34,2-4.51-1.74-6.15-2-7.67-1.17,7.69.7,12.07,5.28,14.61,12.1C79.28,16.72,78.11,14.59,77,12.33ZM53.34,25.49l.32,0c.06-.28.11-.56.16-.84a7.42,7.42,0,0,1,3.36-5.15c5-3.25,12.86-2.19,16.87,2.26a7.54,7.54,0,0,0,.58.54,2,2,0,0,0-.28-1,13.06,13.06,0,0,0-14.87-6.45,10.68,10.68,0,0,0-6.46,4,4.61,4.61,0,0,0-.65,4.5c1-2,2-3.95,4.22-4.76a34.2,34.2,0,0,0-2.43,3.05A4.82,4.82,0,0,0,53.34,25.49ZM93.53,15l-.78,1.28c.14-1.43,1.38-2.62.16-4.06a6.84,6.84,0,0,0-3.39-2.57V12h-.13l-.82-2v7.5l.55-.05c-.21,1-.42,1.82-.58,2.69a10.11,10.11,0,0,0-.12,1.35,5.21,5.21,0,0,0,1.49-.19,2.85,2.85,0,0,0,.92-.91,11.47,11.47,0,0,0,.75-1.22c0,.52.06.7,0,.89,0,1.61,0,1.65,1.47,1.11a.66.66,0,0,1,.31,0c1.34.28,2-.15,2.24-1.58.13-.63.21-1.22-.76-1.13C95.49,17.11,95.28,16.52,93.53,15ZM64.16,34.18c.54,1.25,1.15,1.58,2.72,1.35-.45-3.41,3.33-6.39,6.26-5.77.32.07.69-.15,1-.24-.16-.42-.2-1-.5-1.23-2.1-1.72-6.68-2-9-.69s-3.24,5.22-1.41,7a19.53,19.53,0,0,1-.14-3.24M80.59,4.9l-.29.32C84.24,9.83,84.56,15.28,84,21c.91-1.84.6-3.82,1-5.75a12.56,12.56,0,0,1,.4,3c0,1-.17,2.09-.27,3.13l.41.2c.43-.58,1.14-1.11,1.26-1.75a50.85,50.85,0,0,0,1.13-8,6.6,6.6,0,0,0-5.72-6.31l.76,1.68-.32.21ZM73.83,32.52c.26-.26.76-.68.72-.74-.29-.43-.62-1-1.06-1.13-2.37-.79-5.63,1.68-5.56,4.19A3.43,3.43,0,0,0,68.41,36,3.74,3.74,0,0,0,69,35c.33-1.37.94-2.06,2.06-2.2,0,0,0,.09,0,.1a2.5,2.5,0,0,1-.23.23A1.9,1.9,0,0,0,70,35.45c.42,1,1.36.85,2.21.83a3.61,3.61,0,0,0,.66-.08c.85-.16,1.85-.24,2-1.28A2.16,2.16,0,0,0,73.83,32.52Z"/><path class="cls-1" d="M9.62,121.09c-.11,1.77-1,2.66-2.66,2.66H4.29A2.57,2.57,0,0,1,2.41,123a2.55,2.55,0,0,1-.79-1.88v-6.68a2.59,2.59,0,0,1,.78-1.87,2.55,2.55,0,0,1,1.89-.79H7c1.68,0,2.56.89,2.66,2.66H8.29c-.11-.88-.55-1.32-1.33-1.32H5.62a1.29,1.29,0,0,0-.94.39,1.27,1.27,0,0,0-.39.93v6.68a1.33,1.33,0,0,0,1.33,1.32H7c.78,0,1.23-.44,1.33-1.32Z"/><path class="cls-1" d="M14.21,123.75v-12h5.33a2.54,2.54,0,0,1,1.88.79,2.57,2.57,0,0,1,.79,1.87v.73a2.86,2.86,0,0,1-.62,1.72,2.39,2.39,0,0,1-2.05.83h1.33a1.29,1.29,0,0,1,.94.39,1.31,1.31,0,0,1,.4,1v4.72H19.54v-4a1.35,1.35,0,0,0-1.33-1.34H16.87v5.34Zm2.66-6.66h1.34a1.35,1.35,0,0,0,1.33-1.34v-1.34a1.27,1.27,0,0,0-.39-.93,1.31,1.31,0,0,0-.94-.39H16.87Z"/><path class="cls-1" d="M29.45,111.75h2.67a2.7,2.7,0,0,1,2.67,2.66v6.68a2.7,2.7,0,0,1-2.67,2.66H29.45a2.66,2.66,0,0,1-2.66-2.66v-6.68a2.66,2.66,0,0,1,2.66-2.66Zm0,2.66v6.68a1.27,1.27,0,0,0,.39.93,1.3,1.3,0,0,0,.95.39,1.28,1.28,0,0,0,.94-.39,1.23,1.23,0,0,0,.39-.93v-6.68a1.27,1.27,0,0,0-.39-.93,1.34,1.34,0,0,0-1.89,0A1.27,1.27,0,0,0,29.45,114.41Z"/><path class="cls-1" d="M40.7,123.75v-12h2.66v12Z"/><path class="cls-1" d="M56,114.41H54.63c-.12-.89-.54-1.33-1.26-1.33a1.51,1.51,0,0,0-1.06.33,1.32,1.32,0,0,0-.36,1,1.38,1.38,0,0,0,.4.94l2.82,3.17a2.77,2.77,0,0,1,.78,1.88v.68a2.58,2.58,0,0,1-.78,1.87,2.54,2.54,0,0,1-1.88.79H52a2.36,2.36,0,0,1-2.66-2.66h1.34a1.86,1.86,0,0,0,0,.22.92.92,0,0,0,.41.82,1.61,1.61,0,0,0,.92.28,1.33,1.33,0,0,0,1-.34,1.43,1.43,0,0,0,.31-1,1.38,1.38,0,0,0-.39-.94L50.07,117a2.77,2.77,0,0,1-.78-1.88v-.68A2.68,2.68,0,0,1,52,111.75h1.34C55,111.75,55.84,112.64,56,114.41Z"/><path class="cls-1" d="M67.21,114.41H65.88c-.11-.89-.53-1.33-1.26-1.33a1.49,1.49,0,0,0-1.05.33,1.32,1.32,0,0,0-.36,1,1.42,1.42,0,0,0,.39.94l2.83,3.17a2.77,2.77,0,0,1,.78,1.88v.68a2.58,2.58,0,0,1-.78,1.87,2.54,2.54,0,0,1-1.88.79H63.21a2.36,2.36,0,0,1-2.66-2.66h1.33c0,.09,0,.16,0,.22a.93.93,0,0,0,.42.82,1.61,1.61,0,0,0,.92.28,1.29,1.29,0,0,0,1-.34,1.43,1.43,0,0,0,.32-1,1.35,1.35,0,0,0-.4-.94L61.33,117a2.77,2.77,0,0,1-.78-1.88v-.68a2.68,2.68,0,0,1,2.66-2.66h1.34C66.21,111.75,67.1,112.64,67.21,114.41Z"/><path class="cls-1" d="M71.8,123.75v-9.34a2.59,2.59,0,0,1,.79-1.88,2.57,2.57,0,0,1,1.88-.78h2.67a2.54,2.54,0,0,1,1.88.79,2.57,2.57,0,0,1,.79,1.87v9.34H77.14v-5.34H74.47v5.34Zm2.67-6.66h2.67v-2.68a1.27,1.27,0,0,0-.39-.93,1.34,1.34,0,0,0-1.89,0,1.27,1.27,0,0,0-.39.93Z"/><path class="cls-1" d="M84.39,123.75v-12H85l7.4,6.66v-6.66h1.33v12h-.61l-7.39-6.66v6.66Z"/><path class="cls-1" d="M99.63,123.75V113.09H97v-1.34h8v1.34h-2.66v10.66Z"/><path class="cls-1" d="M108.23,123.75v-12h6.66v1.34h-4v4h2.67v1.32h-2.67v4h4v1.34Z"/><path class="cls-1" d="M119.48,123.75v-12h5.34a2.68,2.68,0,0,1,2.66,2.66v.73a2.85,2.85,0,0,1-.61,1.72,2.39,2.39,0,0,1-2.05.83h1.33a1.33,1.33,0,0,1,1.33,1.34v4.72h-2.66v-4a1.37,1.37,0,0,0-1.34-1.34h-1.33v5.34Zm2.67-6.66h1.33a1.25,1.25,0,0,0,.94-.4,1.26,1.26,0,0,0,.4-.94v-1.34a1.24,1.24,0,0,0-.4-.93,1.28,1.28,0,0,0-.94-.39h-1.33Z"/><path class="cls-1" d="M133.39,123.75v-12h2.67v12Z"/><path class="cls-1" d="M142,123.75v-12h6.66v1.34h-4v4h2.67v1.32h-2.67v4h4v1.34Z"/><circle class="cls-1" cx="16.2" cy="78.83" r="1.5"/><circle class="cls-1" cx="128.24" cy="78.83" r="1.5"/><path class="cls-1" d="M31.08,77.16h6v7A4.46,4.46,0,0,1,35.8,87.6a4,4,0,0,1-2.71,1.16h-4a3.57,3.57,0,0,1-2.82-1.37,4.82,4.82,0,0,1-1.18-3.27V72.5a5,5,0,0,1,1.16-3.26,3.57,3.57,0,0,1,2.84-1.38h4q3.77,0,4,4.64h-2c-.16-1.54-.82-2.31-2-2.31h-2a1.81,1.81,0,0,0-1.41.68,2.39,2.39,0,0,0-.59,1.63V84.12a2.38,2.38,0,0,0,.59,1.64,1.8,1.8,0,0,0,1.41.67q1.92-.11,2-2.31V79.47h-2Z"/><path class="cls-1" d="M46,88.76V67.86H56v2.33H50v7h4v2.31H50v7h6v2.33Z"/><path class="cls-1" d="M76.94,72.5H75c-.18-1.55-.81-2.33-1.9-2.33a2.05,2.05,0,0,0-1.58.59,2.49,2.49,0,0,0-.53,1.75,2.58,2.58,0,0,0,.59,1.63l4.23,5.53A5.25,5.25,0,0,1,76.94,83v1.17a4.81,4.81,0,0,1-1.18,3.26,3.58,3.58,0,0,1-2.82,1.38h-2a3.73,3.73,0,0,1-3-1.16,5.22,5.22,0,0,1-1-3.48h2c0,.16,0,.29,0,.39a1.69,1.69,0,0,0,.63,1.43,2.18,2.18,0,0,0,1.38.49,1.82,1.82,0,0,0,1.53-.6,2.73,2.73,0,0,0,.47-1.74,2.54,2.54,0,0,0-.59-1.63L68.11,77a5.25,5.25,0,0,1-1.17-3.28V72.5a4.89,4.89,0,0,1,1.17-3.27,3.63,3.63,0,0,1,2.83-1.37h2Q76.69,67.86,76.94,72.5Z"/><path class="cls-1" d="M108.8,88.76V67.86h10v2.33h-6v7h4v2.31h-4v7h6v2.33Z"/><path class="cls-1" d="M89.87,88.76V70.19h-4V67.86h12v2.33h-4V88.76Z"/><g class="cls-2"><path class="cls-3" d="M31.08,78.32h6v7a4.45,4.45,0,0,1-1.28,3.47,4,4,0,0,1-2.71,1.16h-4a3.59,3.59,0,0,1-2.82-1.36,4.83,4.83,0,0,1-1.18-3.27V73.66a4.9,4.9,0,0,1,1.16-3.25A3.55,3.55,0,0,1,29.08,69h4q3.77,0,4,4.64h-2c-.16-1.54-.82-2.31-2-2.31h-2a1.81,1.81,0,0,0-1.41.68,2.39,2.39,0,0,0-.59,1.63V85.29a2.37,2.37,0,0,0,.59,1.63,1.8,1.8,0,0,0,1.41.67c1.28-.07,2-.84,2-2.3V80.63h-2Z"/></g><g class="cls-2"><path class="cls-3" d="M108.8,89.92V69h10v2.33h-6v7h4v2.31h-4v7h6v2.33Z"/></g><g class="cls-2"><path class="cls-3" d="M76.94,73.66H75c-.18-1.55-.81-2.33-1.9-2.33a2.05,2.05,0,0,0-1.58.59,2.49,2.49,0,0,0-.53,1.75,2.56,2.56,0,0,0,.59,1.63l4.23,5.53a5.25,5.25,0,0,1,1.18,3.28v1.18a4.85,4.85,0,0,1-1.18,3.26,3.6,3.6,0,0,1-2.82,1.37h-2a3.73,3.73,0,0,1-3-1.16,5.21,5.21,0,0,1-1-3.47h2c0,.16,0,.28,0,.38a1.69,1.69,0,0,0,.63,1.43,2.18,2.18,0,0,0,1.38.49,1.82,1.82,0,0,0,1.53-.6,2.7,2.7,0,0,0,.47-1.74,2.56,2.56,0,0,0-.59-1.63l-4.24-5.51a5.25,5.25,0,0,1-1.17-3.27V73.66a4.89,4.89,0,0,1,1.17-3.27A3.63,3.63,0,0,1,70.94,69h2Q76.69,69,76.94,73.66Z"/></g><g class="cls-2"><path class="cls-3" d="M89.91,89.92V71.35h-4V69h12v2.33h-4V89.92Z"/></g><g class="cls-2"><path class="cls-3" d="M46,89.92V69H56v2.33H50v7h4v2.31H50v7h6v2.33Z"/></g><line class="cls-4" x1="70.77" y1="37.1" x2="70.77" y2="50.29"/><line class="cls-5" x1="48.21" y1="43.08" x2="98.36" y2="43.08"/><polygon class="cls-1" points="95.37 45.62 97.92 43.08 95.37 40.53 97.53 40.53 100.07 43.08 97.53 45.62 95.37 45.62"/><polygon class="cls-1" points="50.9 43.08 44.72 43.08 42.03 40.27 48.21 40.27 50.9 43.08"/><polygon class="cls-1" points="48.21 45.88 42.03 45.88 44.72 43.08 50.9 43.08 48.21 45.88"/></svg>